# xmcd
#
# Track frame offsets:
#	150
#	14457
#	32285
#	46147
#	69645
#
# Disc length: 1204 seconds
#
# Revision: 0
# Processed by: cddbd v1.5.2PL0 Copyright (c) Steve Scherf et al.
# Submitted via: EasyCDDAExtractor 15.2.1.1
#
DISCID=3404b205
DTITLE=Blackwood Jack
DYEAR=2011
DGENRE=Blues
TTITLE0=Wound Up
TTITLE1=Time Takes It's Toll
TTITLE2=I'll Get Mine
TTITLE3=Oh Now!
TTITLE4=Move On
EXTD=
EXTT0=
EXTT1=
EXTT2=
EXTT3=
EXTT4=
PLAYORDER=
